<mxfile host="app.diagrams.net" modified="2023-10-13T19:49:32.085Z" agent="Mozilla/5.0 (Windows NT 10.0; Win64; x64) AppleWebKit/537.36 (KHTML, like Gecko) Chrome/117.0.0.0 Safari/537.36" version="22.0.4" etag="9m9R8wwk-6EKW5t1o3BY" type="github">
  <diagram name="Page-1" id="FuhC1f6pCUckoL55CpSh">
    <mxGraphModel>
      <root>
        <mxCell id="0" />
        <mxCell id="1" parent="0" />
      </root>
    </mxGraphModel>
  </diagram>
</mxfile>
